<?xml version="1.0" encoding="UTF-8" standalone="no"?>
<!-- Created with Inkscape (http://www.inkscape.org/) -->

<svg
   xmlns:dc="http://purl.org/dc/elements/1.1/"
   xmlns:cc="http://creativecommons.org/ns#"
   xmlns:rdf="http://www.w3.org/1999/02/22-rdf-syntax-ns#"
   xmlns:svg="http://www.w3.org/2000/svg"
   xmlns="http://www.w3.org/2000/svg"
   version="1.1"
   width="30"
   height="67"
   id="svg3934">
  <defs
     id="defs3936" />
  <metadata
     id="metadata3939">
    <rdf:RDF>
      <cc:Work
         rdf:about="">
        <dc:format>image/svg+xml</dc:format>
        <dc:type
           rdf:resource="http://purl.org/dc/dcmitype/StillImage" />
        <dc:title></dc:title>
      </cc:Work>
    </rdf:RDF>
  </metadata>
  <g
     transform="translate(0,-982.3622)"
     id="layer1">
    <path
       d="M 0,40 15,0 20,0 5,40 z"
       transform="translate(0,982.3622)"
       id="path3951"
       style="fill:#ffe6d5;stroke:#000000;stroke-width:1px;stroke-linecap:butt;stroke-linejoin:miter;stroke-opacity:1">
       <animate attributeName="opacity" from="1" to="0" begin="0" dur=".5s" fill="freeze" repeatCount="indefinite" />
       <animate attributeName="opacity" from="0" to="1" begin=".5s" dur=".5s" fill="freeze" repeatCount="indefinite" />
    </path>
    <path
       d="M 5,40 5,0 0,0 0,40 z"
       transform="translate(0,982.3622)"
       id="path9098"
       style="fill:#ffe6d5;stroke:#000000;stroke-width:1px;stroke-linecap:butt;stroke-linejoin:miter;stroke-opacity:1">
       <animate attributeName="opacity" from="1" to="0" begin=".5s" dur=".5s" fill="freeze" repeatCount="indefinite" />
       <animate attributeName="opacity" from="0" to="1" begin="0" dur=".5s" fill="freeze" repeatCount="indefinite" />
    </path>
    <path
       d="M 25,55 A 10,10 0 1 1 5,55 10,10 0 1 1 25,55 z"
       transform="translate(0,982.3622)"
       id="path9032"
       style="fill:#008000" />
    <g
       id="g9058" />
    <rect
       width="20"
       height="30"
       x="5"
       y="40"
       transform="translate(0,982.3622)"
       id="rect9088"
       style="fill:#502d16" />
    <rect
       width="5"
       height="20"
       x="25"
       y="45"
       transform="translate(0,982.3622)"
       id="rect9090"
       style="fill:#502d16" />
    <rect
       width="5"
       height="20"
       x="0"
       y="45"
       transform="translate(0,982.3622)"
       id="rect9092"
       style="fill:#502d16" />
    <path
       d="M 25,55 A 10,10 0 1 1 5,55 10,10 0 1 1 25,55 z"
       transform="translate(0,982.3622)"
       id="path9094"
       style="fill:#008000" />
    <rect
       width="5"
       height="5"
       x="0"
       y="40"
       transform="translate(0,982.3622)"
       id="rect9096"
       style="fill:#502d16" />
  </g>
</svg>
