<?xml version="1.0" encoding="UTF-8" standalone="no"?>
<!-- Created with Inkscape (http://www.inkscape.org/) -->

<svg
   xmlns:dc="http://purl.org/dc/elements/1.1/"
   xmlns:cc="http://creativecommons.org/ns#"
   xmlns:rdf="http://www.w3.org/1999/02/22-rdf-syntax-ns#"
   xmlns:svg="http://www.w3.org/2000/svg"
   xmlns="http://www.w3.org/2000/svg"
   version="1.1"
   width="30"
   height="67"
   id="svg3934">
  <defs
     id="defs3936" />
  <metadata
     id="metadata3939">
    <rdf:RDF>
      <cc:Work
         rdf:about="">
        <dc:format>image/svg+xml</dc:format>
        <dc:type
           rdf:resource="http://purl.org/dc/dcmitype/StillImage" />
        <dc:title></dc:title>
      </cc:Work>
    </rdf:RDF>
  </metadata>
  <g
     transform="translate(0,-985.3622)"
     id="layer1">
    <path
       d="m 0.71815533,1026.3622 14.99999967,-39.99998 5,0 -14.9999997,39.99998 z"
       id="path3951"
       style="fill:#ffe6d5;stroke:#000000;stroke-width:1px;stroke-linecap:butt;stroke-linejoin:miter;stroke-opacity:1">
       <animate attributeName="opacity" from="1" to="0" begin=".5s" dur=".5s" fill="freeze" repeatCount="indefinite" />
       <animate attributeName="opacity" from="0" to="1" begin="0" dur=".5s" fill="freeze" repeatCount="indefinite" />
	</path>
    <path
       d="m 5.508233,1026.3622 0,-39.99998 -5,0 0,39.99998 z"
       id="path9098"
       style="fill:#ffe6d5;stroke:#000000;stroke-width:1px;stroke-linecap:butt;stroke-linejoin:miter;stroke-opacity:1">
       <animate attributeName="opacity" from="1" to="0" begin="0" dur=".5s" fill="freeze" repeatCount="indefinite" />
       <animate attributeName="opacity" from="0" to="1" begin=".5s" dur=".5s" fill="freeze" repeatCount="indefinite" />       
	</path>
    <path
       d="m 25,1041.3622 a 10,10 0 0 1 -20,0 10,10 0 1 1 20,0 z"
       id="path9032"
       style="fill:#CC5500" />
    <g
       transform="translate(0,4.0000174)"
       id="g9058" />
    <rect
       width="20"
       height="22"
       x="5"
       y="1030.3622"
       id="rect9088"
       style="fill:#502d16" />
    <rect
       width="5"
       height="22.000017"
       x="25"
       y="1029.3622"
       id="rect9090"
       style="fill:#502d16" />
    <rect
       width="5"
       height="21.000017"
       x="0"
       y="1030.3622"
       id="rect9092"
       style="fill:#502d16" />
    <path
       d="m 25,1041.3622 a 10,10 0 0 1 -20,0 10,10 0 1 1 20,0 z"
       id="path9094"
       style="fill:#CC5500" />
    <rect
       width="5"
       height="4"
       x="0"
       y="1026.3622"
       id="rect9096"
       style="fill:#502d16" />
  </g>
</svg>
